PathFileType	4	(X/Y/Z)	/Users/itak/Documents/Research/Walk-IL/dataset/trc/00367_00011.trc
DataRate	CameraRate	NumFrames	NumMarkers	Units	OrigDataRate	OrigDataStartFrame	OrigNumFrames
100.000000	100.000000	4	53	mm	100.000000	138	554
Frame#	Time	RPSI			LPSI			L3			STRN			T10			C7			CLAV			RBAK			LBAK			LSHO			LUPA			LAEL			LAOL			LWTS			LWPS			LFRA			LIFD			LHPS			LHTS			RSHO			RUPA			RAEL			RAOL			RWTS			RWPS			RFRA			RIFD			RHTS			RHPS			RBHD			LFHD			RFHD			LBHD			LHIP			RHIP			RASI			LASI			LKNE			LTHI			LANK			LTIP			LTOE			LMT1			LMT5			LHEE			RKNE			RTHI			RANK			RTIP			RTOE			RMT1			RMT5			RHEE			
		X1	Y1	Z1	X2	Y2	Z2	X3	Y3	Z3	X4	Y4	Z4	X5	Y5	Z5	X6	Y6	Z6	X7	Y7	Z7	X8	Y8	Z8	X9	Y9	Z9	X10	Y10	Z10	X11	Y11	Z11	X12	Y12	Z12	X13	Y13	Z13	X14	Y14	Z14	X15	Y15	Z15	X16	Y16	Z16	X17	Y17	Z17	X18	Y18	Z18	X19	Y19	Z19	X20	Y20	Z20	X21	Y21	Z21	X22	Y22	Z22	X23	Y23	Z23	X24	Y24	Z24	X25	Y25	Z25	X26	Y26	Z26	X27	Y27	Z27	X28	Y28	Z28	X29	Y29	Z29	X30	Y30	Z30	X31	Y31	Z31	X32	Y32	Z32	X33	Y33	Z33	X34	Y34	Z34	X35	Y35	Z35	X36	Y36	Z36	X37	Y37	Z37	X38	Y38	Z38	X39	Y39	Z39	X40	Y40	Z40	X41	Y41	Z41	X42	Y42	Z42	X43	Y43	Z43	X44	Y44	Z44	X45	Y45	Z45	X46	Y46	Z46	X47	Y47	Z47	X48	Y48	Z48	X49	Y49	Z49	X50	Y50	Z50	X51	Y51	Z51	X52	Y52	Z52	X53	Y53	Z53	

139	1.38	-1397.653442382812	985.8875732421875	-101.8942108154297	-1389.72412109375	983.1290893554688	-230.4345092773438	-1392.118286132812	1030.665893554688	-162.8192138671875	-1174.54833984375	1226.966918945312	-165.2981414794922	-1409.506103515625	1146.520751953125	-176.1910247802734	-1383.55126953125	1397.746459960938	-196.8489990234375	-1224.119506835938	1350.195678710938	-175.6397247314453	-1425.255126953125	1256.803466796875	-131.2297210693359	-1384.78515625	1357.020141601562	-297.858154296875	-1295.519287109375	1378.255737304688	-347.2304992675781	-1302.638549804688	1254.592407226562	-411.5101318359375	-1275.734619140625	1051.404296875	-415.38037109375	-1343.506958007812	1036.624267578125	-366.4129333496094	-1175.554931640625	816.0857543945312	-351.3957214355469	-1207.763916015625	800.7002563476562	-411.1593322753906	-1254.809936523438	947.9044799804688	-416.7470703125	-1169.9423828125	650.698486328125	-334.4021301269531	-1208.123901367188	730.4130859375	-402.3304748535156	-1153.51708984375	740.915283203125	-362.3647766113281	-1340.705810546875	1392.179931640625	-28.29510498046875	-1354.145629882812	1327.86572265625	35.15944671630859	-1338.095947265625	1061.694702148438	77.01566314697266	-1366.361938476562	1051.434814453125	-13.79263114929199	-1213.236694335938	836.95166015625	50.51082229614258	-1257.32958984375	823.3336791992188	114.8724365234375	-1310.873901367188	996.3192138671875	91.36432647705078	-1199.608764648438	663.4688720703125	75.4591064453125	-1187.248046875	735.4024047851562	73.47914886474609	-1241.408935546875	739.245361328125	117.4303436279297	-1360.096923828125	1602.920776367188	-108.2615661621094	-1181.557739257812	1631.121948242188	-213.1968078613281	-1199.3076171875	1628.955932617188	-113.9516525268555	-1361.190795898438	1598.4169921875	-253.1103210449219	-1299.222778320312	920.487548828125	-328.0638732910156	-1328.566040039062	927.9635009765625	12.11908435821533	-1218.925537109375	951.9363403320312	-22.84105110168457	-1181.898681640625	942.5946044921875	-260.2053527832031	-1296.250244140625	459.3097229003906	-293.3114624023438	-1278.524169921875	596.7686767578125	-305.9637145996094	-1418.438598632812	49.18563842773438	-264.2432556152344	-1356.256103515625	245.7984313964844	-290.043701171875	-1214.704956054688	44.1802978515625	-196.6416778564453	-1284.840942382812	35.49930953979492	-156.6929016113281	-1293.256103515625	43.07380676269531	-271.8328857421875	-1453.64013671875	47.28325653076172	-197.6155548095703	-1335.780639648438	465.8566284179688	29.402099609375	-1274.68603515625	721.2885131835938	35.29200744628906	-1412.331909179688	52.70723724365234	31.46719360351562	-1335.792114257812	347.2435913085938	26.51621246337891	-1218.112915039062	48.06571960449219	-13.63532257080078	-1272.844604492188	45.61080932617188	-55.84364318847656	-1311.0302734375	40.34173202514648	55.61946105957031	-1461.51806640625	54.17229080200195	-18.02424430847168	
140	1.39	-1396.427368164062	985.8588256835938	-102.6747207641602	-1388.899780273438	983.1395263671875	-231.2867736816406	-1391.061157226562	1030.618530273438	-163.6480102539062	-1173.608032226562	1226.75634765625	-166.1566772460938	-1408.359985351562	1146.3671875	-176.9183654785156	-1382.561401367188	1397.639404296875	-197.4074249267578	-1223.109008789062	1349.97705078125	-176.3480987548828	-1424.13134765625	1256.5791015625	-131.8769378662109	-1383.84423828125	1357.00244140625	-298.4281921386719	-1294.630493164062	1378.268920898438	-347.8630065917969	-1301.73095703125	1254.573974609375	-412.139892578125	-1274.753540039062	1051.374145507812	-415.8137512207031	-1342.550903320312	1036.606811523438	-366.9165954589844	-1174.279541015625	816.3234252929688	-351.3959350585938	-1206.577758789062	800.6409912109375	-411.0809631347656	-1253.806274414062	947.8677368164062	-417.0236206054688	-1168.882690429688	650.7180786132812	-334.2125549316406	-1207.09716796875	730.3812255859375	-402.2008056640625	-1152.390625	740.935791015625	-362.2457580566406	-1339.650146484375	1391.9013671875	-28.91666221618652	-1353.157958984375	1327.65771484375	34.56040954589844	-1337.726684570312	1061.574340820312	76.51814270019531	-1365.773193359375	1051.223510742188	-14.33731174468994	-1213.5078125	836.4808959960938	50.8289794921875	-1257.256225585938	823.1290893554688	114.8158416748047	-1310.641723632812	996.1573486328125	91.03855133056641	-1199.465454101562	663.2809448242188	75.67405700683594	-1187.203491210938	735.1826171875	73.59284210205078	-1241.385375976562	739.1001586914062	117.4247055053711	-1358.601928710938	1602.880249023438	-108.5813446044922	-1179.8447265625	1630.618530273438	-213.2252197265625	-1197.694946289062	1628.333862304688	-114.0530853271484	-1359.5341796875	1598.6533203125	-253.3836517333984	-1298.625610351562	920.3631591796875	-329.1291809082031	-1327.151489257812	927.7661743164062	11.11960792541504	-1217.554565429688	951.58984375	-24.07391738891602	-1181.240356445312	942.3896484375	-261.5652465820312	-1295.578369140625	458.982421875	-293.8438720703125	-1277.824584960938	596.5136108398438	-306.6743469238281	-1418.476318359375	49.17610168457031	-264.2398681640625	-1355.883056640625	245.584228515625	-290.2592468261719	-1214.821899414062	44.28284072875977	-196.5972900390625	-1284.904052734375	35.39818572998047	-156.6461791992188	-1293.273193359375	43.10253524780273	-271.7894897460938	-1453.694702148438	47.21001434326172	-197.6433258056641	-1334.1416015625	465.5971984863281	28.84784889221191	-1273.196411132812	721.1290893554688	34.19890594482422	-1412.349365234375	52.75225448608398	31.45165061950684	-1334.423583984375	346.9128723144531	25.89328002929688	-1218.152954101562	48.18894195556641	-13.63771152496338	-1272.869262695312	45.61228942871094	-55.86899948120117	-1311.055541992188	40.36860275268555	55.57875823974609	-1461.596313476562	54.15226364135742	-18.01455307006836	
141	1.4	-1395.173095703125	985.8002319335938	-103.4942626953125	-1388.0830078125	983.1159057617188	-232.1907196044922	-1389.996337890625	1030.561157226562	-164.5252838134766	-1172.648315429688	1226.521362304688	-167.0317687988281	-1407.185424804688	1146.2158203125	-177.6868286132812	-1381.5244140625	1397.531127929688	-197.9893798828125	-1222.07177734375	1349.752563476562	-177.0720977783203	-1422.996215820312	1256.354858398438	-132.5622253417969	-1382.872802734375	1356.985717773438	-299.0361328125	-1293.677490234375	1378.285522460938	-348.5066528320312	-1300.779541015625	1254.570922851562	-412.8041381835938	-1273.711303710938	1051.36669921875	-416.29931640625	-1341.55908203125	1036.591186523438	-367.5119934082031	-1173.062133789062	816.5037231445312	-351.3267211914062	-1205.291137695312	800.6127319335938	-411.04443359375	-1252.725830078125	947.8529052734375	-417.357421875	-1167.714233398438	650.7592163085938	-334.0505981445312	-1205.944091796875	730.3722534179688	-402.11376953125	-1151.154296875	740.9783325195312	-362.1542053222656	-1338.5732421875	1391.615844726562	-29.56659126281738	-1352.159545898438	1327.443115234375	33.94180679321289	-1337.38916015625	1061.453369140625	75.99575042724609	-1365.195434570312	1051.01171875	-14.89843082427979	-1213.710815429688	836.0892333984375	51.05862426757812	-1257.163940429688	822.9253540039062	114.7350463867188	-1310.421875	995.9852294921875	90.68215179443359	-1199.234130859375	663.1041870117188	75.80562591552734	-1187.104370117188	735.0020141601562	73.67754364013672	-1241.308715820312	738.9578857421875	117.3642578125	-1357.06591796875	1602.812377929688	-108.9230880737305	-1178.063232421875	1630.08056640625	-213.2341156005859	-1196.045166015625	1627.675048828125	-114.1112899780273	-1357.819580078125	1598.8974609375	-253.6890563964844	-1298.102905273438	920.2042236328125	-330.2802429199219	-1325.696044921875	927.5564575195312	10.06758403778076	-1216.15576171875	951.250244140625	-25.39031982421875	-1180.568237304688	942.2034912109375	-263.0067138671875	-1294.849731445312	458.6377563476562	-294.3976440429688	-1277.086181640625	596.23779296875	-307.4082336425781	-1418.5146484375	49.15081405639648	-264.2457275390625	-1355.490112304688	245.3552398681641	-290.4943237304688	-1214.942504882812	44.38700866699219	-196.5524291992188	-1284.979248046875	35.29007720947266	-156.5977935791016	-1293.293579101562	43.13079833984375	-271.7496643066406	-1453.762939453125	47.12335586547852	-197.6837310791016	-1332.132446289062	465.299072265625	28.22257995605469	-1271.529418945312	720.9501953125	33.00833129882812	-1412.374145507812	52.80913543701172	31.42309761047363	-1332.780517578125	346.5179443359375	25.21705627441406	-1218.201049804688	48.31968688964844	-13.64335632324219	-1272.9013671875	45.60400009155273	-55.9070930480957	-1311.081298828125	40.39888000488281	55.5344352722168	-1461.6748046875	54.12018203735352	-18.00303077697754	
142	1.41	-1393.904174804688	985.7078247070312	-104.3567123413086	-1387.273803710938	983.05615234375	-233.1432495117188	-1388.927734375	1030.488403320312	-165.4476776123047	-1171.67333984375	1226.2578125	-167.9303283691406	-1405.989379882812	1146.0634765625	-178.4990539550781	-1380.435668945312	1397.4169921875	-198.5960845947266	-1221.01220703125	1349.516723632812	-177.8072052001953	-1421.8544921875	1256.12890625	-133.287841796875	-1381.8623046875	1356.965576171875	-299.6814270019531	-1292.6552734375	1378.30078125	-349.1610412597656	-1299.779174804688	1254.5810546875	-413.5037231445312	-1272.59228515625	1051.377197265625	-416.8345642089844	-1340.522216796875	1036.57568359375	-368.2035827636719	-1171.931762695312	816.6082153320312	-351.2012023925781	-1203.907104492188	800.6141357421875	-411.0577087402344	-1251.54150390625	947.8548583984375	-417.7436828613281	-1166.426391601562	650.8192749023438	-333.9066162109375	-1204.655517578125	730.3826904296875	-402.0671997070312	-1149.796875	741.040771484375	-362.0805358886719	-1337.476928710938	1391.319213867188	-30.24580192565918	-1351.151611328125	1327.215942382812	33.30171203613281	-1337.080078125	1061.327026367188	75.45350646972656	-1364.627319335938	1050.794311523438	-15.47377967834473	-1213.781494140625	835.7819213867188	51.17451858520508	-1257.042846679688	822.7178344726562	114.6203231811523	-1310.212036132812	995.7982788085938	90.29725646972656	-1198.928833007812	662.9252319335938	75.84951782226562	-1186.9287109375	734.8529052734375	73.73867797851562	-1241.1845703125	738.8048095703125	117.2501068115234	-1355.491333007812	1602.705810546875	-109.2858200073242	-1176.21435546875	1629.502197265625	-213.2262268066406	-1194.359008789062	1626.97900390625	-114.121940612793	-1356.044067382812	1599.138793945312	-254.0236206054688	-1297.686889648438	920.0173950195312	-331.5285034179688	-1324.210205078125	927.3323974609375	8.968505859375	-1214.742431640625	950.916748046875	-26.79992294311523	-1179.894287109375	942.0343627929688	-264.5298156738281	-1294.055786132812	458.2774658203125	-294.9760131835938	-1276.30810546875	595.9412231445312	-308.1651306152344	-1418.554931640625	49.10876083374023	-264.2655029296875	-1355.066284179688	245.1068267822266	-290.7479248046875	-1215.066162109375	44.4915657043457	-196.5089721679688	-1285.060180664062	35.18499755859375	-156.5529937744141	-1293.319458007812	43.15858459472656	-271.7157897949219	-1453.846313476562	47.02357482910156	-197.7394256591797	-1329.693237304688	464.9559326171875	27.49985694885254	-1269.671508789062	720.7434692382812	31.72505950927734	-1412.407470703125	52.88947677612305	31.37569427490234	-1330.822387695312	346.0615234375	24.48919296264648	-1218.257202148438	48.45665740966797	-13.65347957611084	-1272.94189453125	45.58260726928711	-55.9600715637207	-1311.10595703125	40.43769836425781	55.48526382446289	-1461.753540039062	54.07475662231445	-17.99414253234863	
